<svg width="17" height="16" viewBox="0 0 17 16" fill="none" xmlns="http://www.w3.org/2000/svg">
<path d="M8.97317 7.52668C8.90977 7.46598 8.835 7.41841 8.75317 7.38668C8.59086 7.32 8.40881 7.32 8.2465 7.38668C8.16467 7.41841 8.08991 7.46598 8.0265 7.52668L6.69317 8.86001C6.56763 8.98555 6.49711 9.15581 6.49711 9.33334C6.49711 9.51088 6.56763 9.68114 6.69317 9.80668C6.81871 9.93221 6.98897 10.0027 7.1665 10.0027C7.34404 10.0027 7.5143 9.93221 7.63984 9.80668L7.83317 9.60668V11.3333C7.83317 11.5102 7.90341 11.6797 8.02843 11.8047C8.15346 11.9298 8.32303 12 8.49984 12C8.67665 12 8.84622 11.9298 8.97124 11.8047C9.09627 11.6797 9.1665 11.5102 9.1665 11.3333V9.60668L9.35984 9.80668C9.42181 9.86916 9.49555 9.91876 9.57679 9.9526C9.65803 9.98645 9.74516 10.0039 9.83317 10.0039C9.92118 10.0039 10.0083 9.98645 10.0896 9.9526C10.1708 9.91876 10.2445 9.86916 10.3065 9.80668C10.369 9.7447 10.4186 9.67097 10.4524 9.58973C10.4863 9.50849 10.5037 9.42135 10.5037 9.33334C10.5037 9.24534 10.4863 9.1582 10.4524 9.07696C10.4186 8.99572 10.369 8.92199 10.3065 8.86001L8.97317 7.52668ZM13.8332 5.96001C13.8262 5.89877 13.8128 5.83843 13.7932 5.78001V5.72001C13.7611 5.65146 13.7184 5.58845 13.6665 5.53334L9.6665 1.53334C9.61139 1.48149 9.54838 1.43873 9.47984 1.40668H9.41317C9.34835 1.37201 9.27868 1.34729 9.2065 1.33334H5.1665C4.63607 1.33334 4.12736 1.54406 3.75229 1.91913C3.37722 2.2942 3.1665 2.80291 3.1665 3.33334V12.6667C3.1665 13.1971 3.37722 13.7058 3.75229 14.0809C4.12736 14.456 4.63607 14.6667 5.1665 14.6667H11.8332C12.3636 14.6667 12.8723 14.456 13.2474 14.0809C13.6225 13.7058 13.8332 13.1971 13.8332 12.6667V6.00001C13.8332 6.00001 13.8332 6.00001 13.8332 5.96001ZM9.83317 3.60668L11.5598 5.33334H10.4998C10.323 5.33334 10.1535 5.26311 10.0284 5.13808C9.90341 5.01306 9.83317 4.84349 9.83317 4.66668V3.60668ZM12.4998 12.6667C12.4998 12.8435 12.4296 13.0131 12.3046 13.1381C12.1796 13.2631 12.01 13.3333 11.8332 13.3333H5.1665C4.98969 13.3333 4.82012 13.2631 4.6951 13.1381C4.57008 13.0131 4.49984 12.8435 4.49984 12.6667V3.33334C4.49984 3.15653 4.57008 2.98696 4.6951 2.86194C4.82012 2.73691 4.98969 2.66668 5.1665 2.66668H8.49984V4.66668C8.49984 5.19711 8.71055 5.70582 9.08562 6.08089C9.4607 6.45596 9.9694 6.66668 10.4998 6.66668H12.4998V12.6667Z" fill="#5B5B5B"/>
</svg>
